PathFileType	4	(X/Y/Z)	20_2_66_p1_0-530.trc
DataRate	CameraRate	NumFrames	NumMarkers	Units	OrigDataRate	OrigDataStartFrame	OrigNumFrames
60.0	60.0	7	27	m	60.0	132	531
Frame#	Time	RHip			RKnee			RAnkle			RBigToe			RSmallToe			RHeel			LHip			LKnee			LAnkle			LBigToe			LSmallToe			LHeel			Neck			Head			Nose			RShoulder			RElbow			RWrist			RThumb			RIndex			RPinky			LShoulder			LElbow			LWrist			LThumb			LIndex			LPinky			
		X1	Y1	Z1	X2	Y2	Z2	X3	Y3	Z3	X4	Y4	Z4	X5	Y5	Z5	X6	Y6	Z6	X7	Y7	Z7	X8	Y8	Z8	X9	Y9	Z9	X10	Y10	Z10	X11	Y11	Z11	X12	Y12	Z12	X13	Y13	Z13	X14	Y14	Z14	X15	Y15	Z15	X16	Y16	Z16	X17	Y17	Z17	X18	Y18	Z18	X19	Y19	Z19	X20	Y20	Z20	X21	Y21	Z21	X22	Y22	Z22	X23	Y23	Z23	X24	Y24	Z24	X25	Y25	Z25	X26	Y26	Z26	X27	Y27	Z27	
132	2.2	0.3605568185256588	0.5595191423712531	0.9737951475661535	0.35654565015597506	0.7102903289488826	1.344070996515653	0.3570671874421676	0.8290131495018348	1.7424970298713667	0.3074533992496398	0.6359246367257857	1.8036070471998988	0.3700313023667282	0.6619383122621567	1.8040705314010737	0.33483177116451596	0.9141869664585086	1.7975033743769209	0.15604736528622495	0.544988226730786	0.9590808101660474	0.14776891979522747	0.7043672393840724	1.3366158056111508	0.14115320683176696	0.820818629293886	1.709636415166878	0.1512414231754845	0.6245493564612804	1.7872248817591245	0.09423857719516285	0.6950700206654199	1.7964360916716202	0.15302028079186142	0.8865414709719034	1.7628080005011169	0.28213922147580367	0.4245099292286915	0.44322417011110754	0.3596348842402665	0.35263602944521666	0.23516272952998002	0.2968572908483228	0.3098356272178808	0.3348572263173775	0.41618059340501784	0.45466600345626146	0.5452391142155337	0.46735309736723735	0.5512145879042814	0.8136841213987124	0.4114947323779189	0.4159875246344604	1.019554448329453	0.3145792807353427	0.39271828170618	1.0998776826612056	0.3307302515025239	0.41685757404055507	1.135658345636248	0.3757113637463807	0.42778297874273197	1.1442280278730683	0.12335091681360683	0.5124247270403419	0.5131970569278268	0.049589849087372705	0.6004651733074439	0.7574777096202276	0.055967555133990654	0.4943471290410966	0.969973581964737	0.11680162276723516	0.4391057434692832	1.0576939689343896	0.08471668195713745	0.4098729934077604	1.0631984959656693	0.03727718279552473	0.4376738261331826	1.0678238528925303
133	2.216666666666667	0.35329965517304346	0.5599494709776924	0.9703646243887261	0.356749899408819	0.710011255391941	1.3439761523999227	0.3570897276813755	0.8291166513871443	1.742695155136225	0.306669213687313	0.6330035889094765	1.8023057445373751	0.3695880961294034	0.6601127686505378	1.8034583967683153	0.3345994371881445	0.9138202099166238	1.796980486507194	0.1560863621299019	0.5449183669100904	0.9587373551225673	0.14778650397770254	0.7048755430824483	1.3369367368554421	0.14123629619512282	0.8213005527311251	1.7102537612247484	0.1511944070059971	0.624189492382394	1.7867742063068903	0.0941932974236368	0.6943437152241492	1.795782767821431	0.1530146083077897	0.8868467858216926	1.7629630925166593	0.28196597686237257	0.42419466005436024	0.4433604660233141	0.3557856632538526	0.3417038913707074	0.23669300588174005	0.29307102987410594	0.298833785247634	0.33588608015582483	0.4117000455219827	0.4539591621081998	0.5452347154871057	0.467303609081729	0.551459615291073	0.8137302020055425	0.405717046290708	0.4443633445245364	1.0242010471338086	0.3278287996597637	0.4277662106663973	1.1139519907840678	0.33176566598439156	0.443256931416678	1.1479849282878234	0.3769159945053946	0.4628322349613072	1.15643400417781	0.1198262063600005	0.5125224508970732	0.5169118380097406	0.04463406492264879	0.5968583596498022	0.7609587954942882	0.05671434481850802	0.49657512876980714	0.9787567754391746	0.1214682628466711	0.4394732210807699	1.058293311523508	0.10106043551404384	0.440356923898639	1.0712326274252773	0.04056562858714868	0.4506678520344135	1.070441460410023
134	2.2333333333333334	0.35643052150871163	0.5445801515303964	0.9682611064825876	0.35689402318106395	0.7100470101400405	1.3441460067136102	0.35708695420600145	0.8289295151786027	1.7426709313949211	0.30214937037197603	0.6181140759595345	1.7968803743937143	0.3692618193753628	0.6595552638718652	1.803178607268721	0.3345642368580822	0.9136010520924571	1.7968393325282421	0.15637803886447116	0.5441512586248262	0.9619961700476023	0.14762815681586766	0.7058530859169623	1.3329143800263972	0.14128274390581808	0.8211814985008776	1.7101290801070295	0.15125932889681198	0.6241763026757863	1.7869708861938902	0.09441740327288033	0.6945530209004509	1.796182467173885	0.15306800132429976	0.8863962705473531	1.7625863102515584	0.2818577640021385	0.42429558691588637	0.4432667261564641	0.35532257127294814	0.33954626733286536	0.23390235612716556	0.29307355876958713	0.2989497097940972	0.33580908573137275	0.41163565780009465	0.4537283993373162	0.5451721701027095	0.46718819655264926	0.5520539315011513	0.8098005654953376	0.4071118541260467	0.47126663046616335	1.0353114434458943	0.3285451953453586	0.45469001600875436	1.1270206040218473	0.3312486367279001	0.4464376585660926	1.1523027631377207	0.38107425627367014	0.4781555277099808	1.1599504183935179	0.11588737812352393	0.5257987792379482	0.5167765122599918	0.04057495332753443	0.5952389060128015	0.7610404969625466	0.06352056945612577	0.5123355009719326	0.9843977621360429	0.1257463055719452	0.45132847995336833	1.0642779999617913	0.10457233862920846	0.4656664085622388	1.0818031084036024	0.05023808758784384	0.49395790842465354	1.080484750101445
135	2.25	0.3532980225462878	0.5593644235903399	0.9701924307325314	0.36226859845023524	0.7130283817628285	1.3528559097056088	0.35713680853184254	0.8290249092862523	1.742826475817557	0.297617884357188	0.6008790965017139	1.7906390080448564	0.3737470962885589	0.657642166918844	1.8026582242154794	0.3344914346616726	0.9135133532596224	1.7966537020999183	0.15256810956003794	0.5616713164149428	0.9650489148731646	0.14940802389381613	0.7068065868544968	1.3373835398768184	0.14157948769779546	0.8197469820536684	1.7138455617526367	0.14779484078679408	0.610597484140322	1.782065548944787	0.09407702726049312	0.6950994994089441	1.7964052013200518	0.1573943175275308	0.9031621224483258	1.768498844030618	0.2786531301295931	0.43717069892545546	0.4424383448298063	0.35536903396507336	0.3401413583719666	0.2339147256946472	0.2899061351052047	0.31091945684140676	0.334639058313946	0.4068316071870565	0.44161648821373245	0.5452945607086143	0.46723242927401376	0.553135703304263	0.8098212402071316	0.4040637571057888	0.4858609555061813	1.0370765504528892	0.32286082845308006	0.481476096181331	1.1291357999219565	0.331897489009242	0.446101313443056	1.14942543266057	0.3857687923835376	0.49219615049350646	1.1627759809387808	0.1163328502761933	0.499962317497505	0.520975640221484	0.044757602827354165	0.5959128268121909	0.7646412921396905	0.06376425316879727	0.5130469090574993	0.9847938530196841	0.1266673420466343	0.4516337011792685	1.0654488533373843	0.10549335825912831	0.476883556935486	1.083826611230559	0.0528719354812136	0.5094658512402302	1.0860996353216907
136	2.2666666666666666	0.34843258310693237	0.5456056943308486	0.9685925328235797	0.36131822533632646	0.7101470908767998	1.3440101587814453	0.36057908636263714	0.8115313319598499	1.7369515909543485	0.30076920985572064	0.5861858077056115	1.784934306122892	0.37677753090541233	0.641545319347992	1.796471893278431	0.3333976495786842	0.9152858069792327	1.8022403199956645	0.15225453656993226	0.5625531173864494	0.9616283361465948	0.148519219210295	0.7031853161842736	1.3317176610502075	0.14129059182352963	0.8211242405687594	1.7099655267498615	0.1511365340104996	0.624240322157381	1.7868494523124474	0.09416297035670354	0.6949067830318445	1.796180925163074	0.15748302831849723	0.9030267282425671	1.7682160704252183	0.2784754009421591	0.43684381256446203	0.4425859094021503	0.34904298627006225	0.3413279292208636	0.2338853409209375	0.28874201495841045	0.2976389705920348	0.33605454409396757	0.41144832635247525	0.45362721337809797	0.5449660436416948	0.467193606624342	0.5529036553197106	0.8098069765994387	0.40379379201434484	0.48780038924272856	1.033409609468345	0.3138139197461812	0.5264215529427793	1.1411401076149996	0.33243256217963274	0.473094773783515	1.157619036545549	0.3918215094494955	0.532747618622621	1.174248661775882	0.11244916547190893	0.513213020303717	0.5208741101333614	0.04463994316974004	0.5970481531820688	0.7611768702745692	0.06798794191517825	0.5142017683728393	0.9851087301254501	0.12713447245390225	0.45211359373951593	1.0659554507733635	0.111463769296894	0.4759654143094085	1.0847153382318746	0.05658724482693158	0.5354979921848501	1.0940784073642513
137	2.283333333333333	0.34847014487907874	0.5460575486550838	0.968605593242294	0.3614751841787385	0.7101910884097061	1.344166284871343	0.36057449590557383	0.8115588301600368	1.7369915485966076	0.29734317916318925	0.6013283319281277	1.7907695993479757	0.3719842942153936	0.6414410695731034	1.7964319538811957	0.3358595792957109	0.917108842882961	1.8028865380784584	0.1522770717612027	0.5627858689942693	0.9616393228853588	0.14936059588322498	0.7064182877692509	1.336934930559217	0.14244642469288069	0.8196949939970132	1.7053608015410755	0.15121525577504985	0.6241905612921814	1.7869466172850195	0.09434789146415139	0.6945681119070609	1.7961281911287001	0.1541990081277793	0.8901795763915759	1.7684606975640644	0.27835713910873927	0.43677889548305615	0.44250222404810313	0.3445412435782947	0.3400743287059057	0.23411487617506427	0.28500097102154887	0.2868619355483822	0.33710488343439593	0.4069500225406095	0.4405044411329699	0.5415954943818374	0.4672713728158504	0.5528615737716983	0.8097944968469399	0.4037082103831822	0.4878501860046812	1.0334550923222832	0.3167437411731258	0.5128249871727529	1.1461953925124544	0.33242099025372274	0.47320830594333063	1.157970338525286	0.39180052530909143	0.5330304899223401	1.1742112332999817	0.11240559508001542	0.5131144284426878	0.5209924720391477	0.04866208495771614	0.5982497028693814	0.7612724595319017	0.07250175864074569	0.5158174977002822	0.9854586084008425	0.128501833655955	0.4636985836018314	1.0683743346484613	0.11069760944654294	0.477008200673446	1.0874243121466478	0.05899453921232625	0.5507904426491282	1.0996059784579384
138	2.3	0.34838723848483355	0.5460398493713745	0.9685346722330793	0.36131061831138783	0.7102787788073612	1.3440707735133306	0.36055023473729797	0.8114900644287555	1.7368872983560186	0.3007259906600409	0.5870488702138474	1.785281506573559	0.372084463889359	0.6419534837609319	1.79658718920298	0.3345173641302037	0.9137451413998955	1.7968503710388757	0.14393333973715847	0.5766120990181073	0.9632677509464033	0.14846151606484498	0.7077548109820714	1.3413905642857253	0.141610141293846	0.8196722830794069	1.7139668298257782	0.15232053665320014	0.6259503825399474	1.796406003220055	0.09428275255925807	0.6949732359282762	1.7965052791149887	0.1528386581720133	0.8865644324507157	1.7625879801731634	0.27812413465128455	0.4366700492843754	0.44240458968045127	0.344578725380633	0.33985122953165803	0.23407391009161405	0.2820043078814993	0.29917224762020866	0.3358178971619069	0.40229117231641803	0.44107540055004896	0.5417664721516955	0.4671985849738291	0.5531131330618133	0.8096953959139044	0.4083613022274775	0.5005714748552837	1.034888874228262	0.3163490649614681	0.5094733545596088	1.1342881028808343	0.335254570329169	0.4599114677076678	1.154957037413224	0.3915585780968817	0.532679131211506	1.1741844980064762	0.11232503888491284	0.5130084690381282	0.5213423652801118	0.04874963411937267	0.5979393382872086	0.7649826039167298	0.07287127623634519	0.5159401609933846	0.9858619184001264	0.1322261114410882	0.45592189661712534	1.0737929691334365	0.11072813942243608	0.4798171203299346	1.091181087377308	0.06317984985138095	0.5387197551092225	1.0979380066285969
